<svg width="45" height="64" viewBox="0 0 45 64" fill="none" xmlns="http://www.w3.org/2000/svg">
<path d="M23.1885 31.0995C23.958 32.0402 26.011 32.2117 26.5237 30.8452C24.4714 29.4766 23.1885 31.0995 23.1885 31.0995Z" fill="white"/>
<path d="M21.6319 30.8284C19.3336 29.7161 18.0736 31.0509 17.9995 31.2734C19.6304 32.7564 21.187 31.7183 21.187 31.7183C21.187 31.7183 21.187 34.089 21.4836 34.6081C21.7796 35.1271 23.3364 34.3856 23.3364 34.3856L22.0021 34.4599C22.0021 34.4599 22.1133 31.3094 21.6319 30.8284Z" fill="white"/>
<path d="M39.2467 0L5.22675 0C2.34 0 0 2.34113 0 5.22875L0 58.7733C0 61.661 2.34 64 5.22675 64H39.2469C42.1335 64 44.4746 61.661 44.4746 58.7733V5.22875C44.4745 2.34113 42.1335 0 39.2467 0ZM5.13238 8.732C5.13338 7.0805 6.47137 5.7415 8.124 5.7415H12.9619V6.88025H9.88875L6.27225 10.4978V13.5699H5.13238V8.732ZM8.12288 58.2606C6.47138 58.2596 5.13138 56.9216 5.13238 55.2691L5.13138 50.4311H6.27013L6.27125 53.5041L9.88875 57.1217H12.9607L12.9619 58.2605L8.12288 58.2606ZM29.6006 36.7585C29.1631 36.2415 28.6366 35.9237 28.0928 35.7331C27.8416 36.125 27.5535 36.4916 27.231 36.8264C28.8825 39.3773 26.856 41.7035 29.3338 43.2671C27.7331 43.8391 26.2887 41.337 25.8825 39.1124C25.8147 38.7416 25.6828 38.4175 25.516 38.1273C25.1178 38.3413 24.696 38.5171 24.2559 38.6506C24.9355 42.5171 21.2066 43.568 22.7999 46.5934C20.9651 46.2607 20.9651 43.0913 21.7988 40.7566C22.0265 40.1189 22.0398 39.5024 21.9323 38.9346C21.4566 38.9155 20.9942 38.8456 20.5477 38.7355C19.1637 41.4346 16.1425 40.8541 16.0288 43.78C14.7321 42.6804 16.177 40.1782 17.8995 38.7142C18.1893 38.4685 18.4047 38.191 18.5732 37.8986C18.186 37.6571 17.8248 37.3796 17.4938 37.0703C14.4831 39.6 11.7055 36.8901 9.87975 39.7842C9.25163 38.03 11.9957 36.4452 14.4349 36.0004C15.0991 35.8796 15.6382 35.583 16.0752 35.208C15.8607 34.797 15.6875 34.3606 15.5584 33.9051C12.5298 34.0555 11.5219 31.1509 8.93238 32.5153C9.23588 30.8415 12.1251 30.8415 14.2544 31.6021C14.6125 31.7292 14.9615 31.7779 15.2989 31.7779C15.3138 31.3139 15.3726 30.8626 15.4738 30.4261C11.7804 29.0829 12.7369 25.3245 9.3175 25.1909C10.5235 23.7694 13.2681 25.354 14.8735 27.2439C15.311 27.7588 15.837 28.0788 16.3815 28.2693C16.6325 27.8753 16.9206 27.5087 17.2433 27.174C15.5923 24.6252 17.6182 22.2969 15.1405 20.7354C16.7411 20.1612 18.1856 22.6634 18.5919 24.888C18.6596 25.2586 18.792 25.5829 18.9589 25.8731C19.3572 25.6611 19.7783 25.4854 20.2179 25.3519C19.5389 21.4854 23.2683 20.4345 21.6749 17.407C23.5091 17.7417 23.5091 20.9091 22.6754 23.2437C22.4476 23.8836 22.4349 24.5001 22.5425 25.0658C23.0175 25.0869 23.48 25.1547 23.9259 25.2671C25.3099 22.5679 28.3311 23.1484 28.4455 20.2226C29.7426 21.3221 28.2978 23.8242 26.5748 25.2882C26.285 25.534 26.0695 25.8115 25.901 26.1039C26.2883 26.3455 26.6495 26.623 26.9805 26.9324C29.9915 24.4028 32.7691 27.1124 34.5944 24.2162C35.2225 25.9726 32.4789 27.5574 30.0394 28.0023C29.3746 28.1231 28.8359 28.4196 28.3985 28.7946C28.6135 29.2056 28.7861 29.6421 28.9155 30.0955C31.944 29.9473 32.9525 32.8519 35.5425 31.4875C35.2375 33.1613 32.3498 33.1612 30.2205 32.4006C29.8624 32.2735 29.5128 32.2248 29.1749 32.2248C29.16 32.6888 29.1018 33.14 29.0001 33.5744C32.694 34.9175 31.7374 38.676 35.1569 38.8094C33.9502 40.231 31.2066 38.6483 29.6006 36.7585ZM39.3411 55.2691C39.34 56.9216 38.0031 58.2596 36.3506 58.2596H31.5116V57.1219H34.5848L38.2013 53.5031V50.4311H39.3411V55.2691ZM38.2034 13.57L38.2023 10.4967L34.5858 6.87925H31.5126L31.5115 5.7405H36.3515C38.003 5.74162 39.342 7.0795 39.341 8.732L39.342 13.57H38.2034Z" fill="white"/>
</svg>
