<svg width="25" height="25" viewBox="0 0 25 25" fill="none" xmlns="http://www.w3.org/2000/svg">
<g clip-path="url(#clip0_91_209)">
<path d="M24.5117 12.5H21.5864C21.5864 9.99121 20.5693 7.71924 18.9248 6.0752C19.1838 5.81621 20.7346 4.26538 20.9937 4.00635C23.167 6.18018 24.5117 9.18311 24.5117 12.5Z" fill="#FFDF40"/>
<path d="M21.5864 12.5H24.5117C24.5117 15.8169 23.167 18.8198 20.9937 20.9937C20.7346 20.7346 19.1838 19.1838 18.9248 18.9248C20.5693 17.2808 21.5864 15.0088 21.5864 12.5Z" fill="#FFBE40"/>
<path d="M20.9937 4.00635C20.7346 4.26538 19.1838 5.81616 18.9248 6.07519C17.2808 4.43066 15.0088 3.41357 12.5 3.41357V0.488281C15.8169 0.488281 18.8198 1.83301 20.9937 4.00635Z" fill="#FFBE40"/>
<path d="M20.9937 20.9937C18.8198 23.167 15.8169 24.5117 12.5 24.5117V21.5864C15.0088 21.5864 17.2808 20.5693 18.9248 18.9248L20.9937 20.9937Z" fill="#FFDF40"/>
<path d="M18.9214 18.9241C22.4694 15.3762 22.4694 9.62383 18.9214 6.0759C15.3735 2.52796 9.62115 2.52796 6.07321 6.0759C2.52528 9.62383 2.52528 15.3762 6.07321 18.9241C9.62115 22.472 15.3735 22.472 18.9214 18.9241Z" fill="#FF9F40"/>
<path d="M18.1382 16.1772L12.5 6.37158L6.86182 16.1772H18.1382Z" fill="#FF9F40"/>
<path d="M12.5 6.37158L18.1382 16.1772H6.86182L12.5 6.37158Z" fill="#FFDF40"/>
<path d="M12.5 21.5864V24.5117C9.18311 24.5117 6.18018 23.167 4.00635 20.9937L6.0752 18.9248C7.71924 20.5693 9.99121 21.5864 12.5 21.5864Z" fill="#FFBE40"/>
<path d="M12.5 0.488281V3.41357C9.99121 3.41357 7.71924 4.43066 6.0752 6.07519C5.81616 5.81621 4.26538 4.26538 4.00635 4.00635C6.18018 1.83301 9.18311 0.488281 12.5 0.488281Z" fill="#FFDF40"/>
<path d="M6.0752 18.9248C5.81616 19.1838 4.26538 20.7346 4.00635 20.9937C1.83301 18.8198 0.488281 15.8169 0.488281 12.5H3.41357C3.41357 15.0088 4.43066 17.2808 6.0752 18.9248Z" fill="#FFDF40"/>
<path d="M6.0752 6.0752C4.43066 7.71924 3.41357 9.99121 3.41357 12.5H0.488281C0.488281 9.18311 1.83301 6.18018 4.00635 4.00635C4.26538 4.26538 5.81616 5.81616 6.0752 6.0752Z" fill="#FFBE40"/>
<path d="M25 12.5C25 5.5916 19.4093 0 12.5 0C5.59165 0 0 5.59067 0 12.5C0 19.4083 5.59067 25 12.5 25C19.4083 25 25 19.4093 25 12.5V12.5ZM20.9821 20.2916L19.6035 18.9129C21.0366 17.3271 21.9476 15.2609 22.0624 12.9882H24.0124C23.8946 15.7979 22.7665 18.3506 20.9821 20.2916ZM0.987646 12.9883H2.93765C3.05234 15.261 3.96343 17.3271 5.39648 18.9129L4.01787 20.2916C2.23355 18.3506 1.10537 15.7979 0.987646 12.9883ZM4.01792 4.70845L5.39653 6.08706C3.96343 7.67295 3.05234 9.73901 2.93765 12.0117H0.987646C1.10537 9.20205 2.23355 6.64941 4.01792 4.70845ZM12.5 21.0981C7.75894 21.0981 3.90186 17.2411 3.90186 12.5C3.90186 7.75894 7.75894 3.90186 12.5 3.90186C17.2411 3.90186 21.0981 7.75894 21.0981 12.5C21.0981 17.2411 17.2411 21.0981 12.5 21.0981ZM18.9129 5.39653C17.3271 3.96343 15.261 3.05234 12.9883 2.93765V0.987646C15.7979 1.10542 18.3506 2.23359 20.2916 4.01792L18.9129 5.39653ZM12.0117 2.93765C9.73901 3.05234 7.6729 3.96343 6.08706 5.39653L4.70845 4.01792C6.64941 2.23355 9.20205 1.10537 12.0117 0.987646V2.93765ZM6.08706 19.6035C7.6729 21.0365 9.73901 21.9476 12.0117 22.0624V24.0124C9.20205 23.8946 6.64941 22.7664 4.70845 20.9821L6.08706 19.6035ZM12.9883 22.0624C15.261 21.9477 17.3271 21.0366 18.9129 19.6035L20.2916 20.9821C18.3506 22.7664 15.7979 23.8946 12.9883 24.0124V22.0624ZM22.0624 12.0117C21.9476 9.73901 21.0365 7.6729 19.6035 6.08706L20.9821 4.70845C22.7664 6.64941 23.8946 9.202 24.0124 12.0117H22.0624Z" fill="black"/>
<path d="M18.5615 15.9337L12.9233 6.12824C12.7359 5.80236 12.2644 5.80192 12.0767 6.12824L6.43853 15.9337C6.25195 16.2581 6.48594 16.6653 6.86182 16.6653H18.1382C18.5122 16.6653 18.749 16.2598 18.5615 15.9337ZM7.70581 15.6888L12.5 7.35119L17.2942 15.6888H7.70581Z" fill="black"/>
</g>
<defs>
<clipPath id="clip0_91_209">
<rect width="25" height="25" fill="white"/>
</clipPath>
</defs>
</svg>
