<?xml version="1.0" encoding="UTF-8"?>
<!DOCTYPE svg PUBLIC "-//W3C//DTD SVG 1.1//EN" "http://www.w3.org/Graphics/SVG/1.1/DTD/svg11.dtd">
<svg xmlns="http://www.w3.org/2000/svg" version="1.1" width="300px" height="300px" style="shape-rendering:geometricPrecision; text-rendering:geometricPrecision; image-rendering:optimizeQuality; fill-rule:evenodd; clip-rule:evenodd" xmlns:xlink="http://www.w3.org/1999/xlink">
<g><path style="opacity:0.004" fill="#18170f" d="M 107.5,-0.5 C 108.5,-0.5 109.5,-0.5 110.5,-0.5C 110.842,0.338246 111.508,0.67158 112.5,0.5C 111.5,1.16667 110.5,1.83333 109.5,2.5C 108.833,2.5 108.5,2.83333 108.5,3.5C 100.019,2.11188 99.6859,0.778547 107.5,-0.5 Z"/></g>
<g><path style="opacity:0.004" fill="#1d1c17" d="M 190.5,3.5 C 190.804,2.85013 191.137,2.18346 191.5,1.5C 194.446,0.345244 197.446,0.178577 200.5,1C 197.198,2.02623 193.865,2.85957 190.5,3.5 Z"/></g>
<g><path style="opacity:0.004" fill="#000000" d="M 0.5,1.5 C 1.83333,2.16667 1.83333,2.16667 0.5,1.5 Z"/></g>
<g><path style="opacity:0.004" fill="#ffdfc4" d="M 186.5,2.5 C 186.5,2.16667 186.5,1.83333 186.5,1.5C 190.5,1.83333 190.5,2.16667 186.5,2.5 Z"/></g>
<g><path style="opacity:0.004" fill="#ff7a59" d="M 105.5,4.5 C 104.761,4.63101 104.094,4.46434 103.5,4C 104.437,3.30831 105.103,3.47498 105.5,4.5 Z"/></g>
<g><path style="opacity:0.004" fill="#fffebe" d="M 193.5,4.5 C 193.897,3.47498 194.563,3.30831 195.5,4C 194.906,4.46434 194.239,4.63101 193.5,4.5 Z"/></g>
<g><path style="opacity:0.004" fill="#341a20" d="M 95.5,6.5 C 95.1667,6.5 94.8333,6.5 94.5,6.5C 93.1667,6.83333 93.1667,7.16667 94.5,7.5C 94.8333,7.5 95.1667,7.5 95.5,7.5C 95.5,7.83333 95.5,8.16667 95.5,8.5C 93.8828,9.038 92.2161,9.37133 90.5,9.5C 89.2089,8.45834 89.2089,7.29167 90.5,6C 92.3869,5.22039 94.0536,5.38705 95.5,6.5 Z"/></g>
<g><path style="opacity:0.004" fill="#000000" d="M 86.5,7.5 C 87.3764,7.36912 88.0431,7.70245 88.5,8.5C 86.1916,9.87342 85.5249,9.54009 86.5,7.5 Z"/></g>
<g><path style="opacity:0.004" fill="#ffbfa9" d="M 207.5,9.5 C 207.5,9.16667 207.5,8.83333 207.5,8.5C 210.167,8.83333 210.167,9.16667 207.5,9.5 Z"/></g>
<g><path style="opacity:0.025" fill="#eeebdb" d="M 212.5,12.5 C 218.742,12.4573 223.742,14.7906 227.5,19.5C 227.5,19.8333 227.5,20.1667 227.5,20.5C 224.669,19.9213 222.336,18.588 220.5,16.5C 219.508,16.6716 218.842,16.3382 218.5,15.5C 215.911,15.539 213.911,14.539 212.5,12.5 Z"/></g>
<g><path style="opacity:0.004" fill="#fefffe" d="M 227.5,18.5 C 228.833,19.1667 228.833,19.1667 227.5,18.5 Z"/></g>
<g><path style="opacity:0.255" fill="#d6cac1" d="M 86.5,12.5 C 81.6981,15.4028 76.6981,18.0695 71.5,20.5C 71.3893,19.8826 71.056,19.3826 70.5,19C 75.035,14.9002 80.3683,12.7335 86.5,12.5 Z"/></g>
<g><path style="opacity:0.031" fill="#d5bbb0" d="M 227.5,20.5 C 232.635,21.1265 236.635,23.6265 239.5,28C 242.559,28.0577 244.892,29.391 246.5,32C 246.167,32.3333 245.833,32.6667 245.5,33C 247.723,35.2227 250.389,36.556 253.5,37C 254.71,38.0391 255.71,39.2058 256.5,40.5C 255.761,40.369 255.094,40.5357 254.5,41C 257.41,42.6431 260.077,44.6431 262.5,47C 262.167,47.3333 261.833,47.6667 261.5,48C 264.722,49.6879 266.722,51.8546 267.5,54.5C 268.11,55.391 268.443,56.391 268.5,57.5C 256.352,43.3453 242.685,31.012 227.5,20.5 Z"/></g>
<g><path style="opacity:0.004" fill="#000000" d="M 43.5,41.5 C 42.8333,40.1667 42.8333,40.1667 43.5,41.5 Z"/></g>
<g><path style="opacity:0.004" fill="#000000" d="M 256.5,40.5 C 257.167,40.5 257.5,40.8333 257.5,41.5C 257.167,41.1667 256.833,40.8333 256.5,40.5 Z"/></g>
<g><path style="opacity:0.004" fill="#000000" d="M 257.5,41.5 C 258.833,42.1667 258.833,42.1667 257.5,41.5 Z"/></g>
<g><path style="opacity:0.004" fill="#fe0000" d="M 267.5,53.5 C 268.833,54.1667 268.833,54.1667 267.5,53.5 Z"/></g>
<g><path style="opacity:0.004" fill="#000000" d="M 272.5,60.5 C 273.833,61.1667 273.833,61.1667 272.5,60.5 Z"/></g>
<g><path style="opacity:0.322" fill="#d1c4b2" d="M 42.5,43.5 C 35.111,52.2193 28.111,61.2193 21.5,70.5C 20.1463,67.9669 20.9796,66.3002 24,65.5C 25.3256,60.5138 28.1589,56.6804 32.5,54C 32.1667,53.6667 31.8333,53.3333 31.5,53C 33.5,51.3333 35.5,49.6667 37.5,48C 36.9394,46.4345 37.6061,45.1011 39.5,44C 40.448,43.5172 41.448,43.3505 42.5,43.5 Z"/></g>
<g><path style="opacity:0.004" fill="#fe0000" d="M 278.5,69.5 C 279.833,70.1667 279.833,70.1667 278.5,69.5 Z"/></g>
<g><path style="opacity:0.004" fill="#feff00" d="M 281.5,74.5 C 282.833,75.1667 282.833,75.1667 281.5,74.5 Z"/></g>
<g><path style="opacity:0.004" fill="#fefffe" d="M 14.5,80.5 C 13.8333,79.1667 13.8333,79.1667 14.5,80.5 Z"/></g>
<g><path style="opacity:0.004" fill="#fefffe" d="M 284.5,79.5 C 285.833,80.1667 285.833,80.1667 284.5,79.5 Z"/></g>
<g><path style="opacity:0.004" fill="#fefffe" d="M 285.5,81.5 C 286.833,82.1667 286.833,82.1667 285.5,81.5 Z"/></g>
<g><path style="opacity:0.004" fill="#000000" d="M 295.5,81.5 C 297.344,82.2039 297.844,83.5372 297,85.5C 295.812,84.4366 295.312,83.1033 295.5,81.5 Z"/></g>
<g><path style="opacity:0.004" fill="#fffe7a" d="M 12.5,84.5 C 11.475,84.1034 11.3083,83.4368 12,82.5C 12.4643,83.0944 12.631,83.7611 12.5,84.5 Z"/></g>
<g><path style="opacity:0.004" fill="#fefffe" d="M 286.5,83.5 C 287.833,84.1667 287.833,84.1667 286.5,83.5 Z"/></g>
<g><path style="opacity:0.004" fill="#feff00" d="M 11.5,86.5 C 10.8333,85.1667 10.8333,85.1667 11.5,86.5 Z"/></g>
<g><path style="opacity:0.004" fill="#fefffe" d="M 287.5,85.5 C 288.833,86.1667 288.833,86.1667 287.5,85.5 Z"/></g>
<g><path style="opacity:0.004" fill="#feff00" d="M 10.5,88.5 C 9.83333,87.1667 9.83333,87.1667 10.5,88.5 Z"/></g>
<g><path style="opacity:0.004" fill="#250f14" d="M 10.5,90.5 C 10.1667,91.1667 9.83333,91.8333 9.5,92.5C 8.83333,92.5 8.5,92.8333 8.5,93.5C 8.5,94.1667 8.5,94.8333 8.5,95.5C 7.83333,95.5 7.5,95.8333 7.5,96.5C 7.5,96.8333 7.5,97.1667 7.5,97.5C 7.16667,97.5 6.83333,97.5 6.5,97.5C 6.16667,97.5 5.83333,97.5 5.5,97.5C 5.21478,95.712 5.54811,94.0453 6.5,92.5C 7.79892,91.91 8.63225,90.91 9,89.5C 9.38258,90.056 9.88258,90.3893 10.5,90.5 Z"/></g>
<g><path style="opacity:0.004" fill="#000000" d="M 289.5,90.5 C 290.833,91.1667 290.833,91.1667 289.5,90.5 Z"/></g>
<g><path style="opacity:0.004" fill="#000000" d="M 295.5,104.5 C 295.5,104.167 295.5,103.833 295.5,103.5C 295.5,102.833 295.167,102.5 294.5,102.5C 294.5,101.833 294.5,101.167 294.5,100.5C 294.247,98.1727 294.914,96.1727 296.5,94.5C 297.84,98.0969 297.507,101.43 295.5,104.5 Z"/></g>
<g><path style="opacity:0.004" fill="#393830" d="M -0.5,107.5 C 0.777652,107.782 1.77765,108.449 2.5,109.5C 2.5,110.5 2.5,111.5 2.5,112.5C 1.56552,113.568 1.23219,114.901 1.5,116.5C 1.5,116.833 1.5,117.167 1.5,117.5C 0.833333,115.833 0.166667,114.167 -0.5,112.5C -0.5,110.833 -0.5,109.167 -0.5,107.5 Z"/></g>
<g><path style="opacity:0.008" fill="#939073" d="M 297.5,113.5 C 298.167,114.5 298.833,115.5 299.5,116.5C 299.5,116.833 299.5,117.167 299.5,117.5C 298.833,117.5 298.167,117.5 297.5,117.5C 297.5,116.167 297.5,114.833 297.5,113.5 Z"/></g>
<g><path style="opacity:0.992" fill="#f0bc7d" d="M 116.5,-0.5 C 118.5,-0.5 120.5,-0.5 122.5,-0.5C 123.5,0.833333 124.5,0.833333 125.5,-0.5C 141.5,-0.5 157.5,-0.5 173.5,-0.5C 177.735,1.48509 182.069,2.15176 186.5,1.5C 182.5,1.83333 182.5,2.16667 186.5,2.5C 187.568,3.43448 188.901,3.76781 190.5,3.5C 191.209,4.40397 192.209,4.73731 193.5,4.5C 198.204,5.76072 202.871,7.09406 207.5,8.5C 204.833,8.83333 204.833,9.16667 207.5,9.5C 209.261,10.3127 210.928,11.3127 212.5,12.5C 213.911,14.539 215.911,15.539 218.5,15.5C 218.842,16.3382 219.508,16.6716 220.5,16.5C 222.336,18.588 224.669,19.9213 227.5,20.5C 242.685,31.012 256.352,43.3453 268.5,57.5C 269.397,58.5981 270.23,58.5981 271,57.5C 271.21,59.0581 271.71,60.3915 272.5,61.5C 274.203,64.516 276.203,67.1827 278.5,69.5C 277.167,69.8333 277.167,70.1667 278.5,70.5C 279.185,72.7785 280.185,74.1118 281.5,74.5C 280.167,74.8333 280.167,75.1667 281.5,75.5C 282.185,77.7785 283.185,79.1118 284.5,79.5C 283.167,79.8333 283.167,80.1667 284.5,80.5C 284.328,81.4916 284.662,82.1583 285.5,82.5C 285.328,83.4916 285.662,84.1583 286.5,84.5C 286.328,85.4916 286.662,86.1583 287.5,86.5C 289.375,87.9508 290.042,89.6175 289.5,91.5C 289.659,94.3658 290.659,96.0325 292.5,96.5C 291.674,97.451 291.508,98.451 292,99.5C 292.333,99.1667 292.667,98.8333 293,98.5C 293.278,99.4158 293.778,100.082 294.5,100.5C 294.5,101.167 294.5,101.833 294.5,102.5C 295.167,102.5 295.5,102.833 295.5,103.5C 295.5,103.833 295.5,104.167 295.5,104.5C 296.773,106.617 296.773,108.784 295.5,111C 295.944,112.762 296.444,112.595 297,110.5C 297.483,111.448 297.649,112.448 297.5,113.5C 296.167,114.833 296.167,116.167 297.5,117.5C 297.343,118.873 297.51,120.207 298,121.5C 298.232,120.263 298.732,119.263 299.5,118.5C 299.5,119.833 299.5,121.167 299.5,122.5C 298.167,123.833 298.167,125.167 299.5,126.5C 299.5,141.5 299.5,156.5 299.5,171.5C 298.539,173.265 298.205,175.265 298.5,177.5C 297.167,178.5 297.167,179.5 298.5,180.5C 298.425,183.206 298.092,185.873 297.5,188.5C 297.167,188.5 296.833,188.5 296.5,188.5C 296.167,184.5 295.833,184.5 295.5,188.5C 294.596,189.209 294.263,190.209 294.5,191.5C 294.5,191.833 294.5,192.167 294.5,192.5C 293.662,192.842 293.328,193.508 293.5,194.5C 293.5,194.833 293.5,195.167 293.5,195.5C 292.596,196.209 292.263,197.209 292.5,198.5C 291.209,199.542 291.209,200.708 292.5,202C 291.244,202.417 290.577,203.25 290.5,204.5C 289.833,204.5 289.5,204.833 289.5,205.5C 289.5,205.833 289.5,206.167 289.5,206.5C 289.5,206.833 289.5,207.167 289.5,207.5C 289.35,209.143 289.017,210.81 288.5,212.5C 288.167,209.833 287.833,209.833 287.5,212.5C 286.167,212.833 286.167,213.167 287.5,213.5C 287.737,214.791 287.404,215.791 286.5,216.5C 286.167,213.833 285.833,213.833 285.5,216.5C 284.167,216.833 284.167,217.167 285.5,217.5C 285.672,218.492 285.338,219.158 284.5,219.5C 284.167,218.167 283.833,218.167 283.5,219.5C 282.662,219.842 282.328,220.508 282.5,221.5C 281.662,221.842 281.328,222.508 281.5,223.5C 280.167,223.833 280.167,224.167 281.5,224.5C 281.5,225.167 281.5,225.833 281.5,226.5C 281.167,226.5 280.833,226.5 280.5,226.5C 280.167,225.167 279.833,225.167 279.5,226.5C 278.662,226.842 278.328,227.508 278.5,228.5C 277.167,228.833 277.167,229.167 278.5,229.5C 277.969,231.624 276.635,233.124 274.5,234C 276.878,234.974 276.544,235.641 273.5,236C 273.957,236.414 274.291,236.914 274.5,237.5C 270.956,243.62 266.29,248.62 260.5,252.5C 259.614,253.325 259.281,254.325 259.5,255.5C 256.916,255.569 254.916,256.735 253.5,259C 253.833,259.333 254.167,259.667 254.5,260C 253.115,261.649 251.449,262.816 249.5,263.5C 249.167,262.167 248.833,262.167 248.5,263.5C 247.833,263.5 247.5,263.833 247.5,264.5C 246.833,264.5 246.5,264.833 246.5,265.5C 245.167,265.833 245.167,266.167 246.5,266.5C 245.155,268.836 243.155,270.503 240.5,271.5C 240.167,270.167 239.833,270.167 239.5,271.5C 238.508,271.328 237.842,271.662 237.5,272.5C 236.833,272.5 236.5,272.833 236.5,273.5C 236.167,273.5 235.833,273.5 235.5,273.5C 234.167,273.833 234.167,274.167 235.5,274.5C 235.5,274.833 235.5,275.167 235.5,275.5C 234.71,276.401 233.71,277.068 232.5,277.5C 231.5,277.5 230.5,277.5 229.5,277.5C 228.833,277.5 228.5,277.833 228.5,278.5C 227.508,278.328 226.842,278.662 226.5,279.5C 226.167,279.5 225.833,279.5 225.5,279.5C 224.508,279.328 223.842,279.662 223.5,280.5C 223.5,280.833 223.5,281.167 223.5,281.5C 223.167,281.5 222.833,281.5 222.5,281.5C 221.833,281.5 221.5,281.833 221.5,282.5C 221.167,282.5 220.833,282.5 220.5,282.5C 219.833,282.5 219.5,282.833 219.5,283.5C 218.494,283.938 218.494,284.604 219.5,285.5C 219.167,285.5 218.833,285.5 218.5,285.5C 217.5,284.167 216.5,284.167 215.5,285.5C 214.833,285.5 214.5,285.833 214.5,286.5C 214.167,286.5 213.833,286.5 213.5,286.5C 212.833,286.5 212.5,286.833 212.5,287.5C 212.167,287.5 211.833,287.5 211.5,287.5C 210.833,287.5 210.5,287.833 210.5,288.5C 210.167,288.5 209.833,288.5 209.5,288.5C 208.508,288.328 207.842,288.662 207.5,289.5C 206.167,289.833 204.833,290.167 203.5,290.5C 202.833,290.5 202.5,290.833 202.5,291.5C 201.167,291.833 199.833,292.167 198.5,292.5C 197.508,292.328 196.842,292.662 196.5,293.5C 196.167,293.5 195.833,293.5 195.5,293.5C 192.833,293.833 192.833,294.167 195.5,294.5C 195.5,294.833 195.5,295.167 195.5,295.5C 194.5,295.5 193.5,295.5 192.5,295.5C 191.5,294.167 190.5,294.167 189.5,295.5C 188.209,295.263 187.209,295.596 186.5,296.5C 186.167,296.5 185.833,296.5 185.5,296.5C 184.209,296.263 183.209,296.596 182.5,297.5C 182.167,297.5 181.833,297.5 181.5,297.5C 180.508,297.328 179.842,297.662 179.5,298.5C 178.209,298.263 177.209,298.596 176.5,299.5C 162.5,299.5 148.5,299.5 134.5,299.5C 127.405,297.568 120.072,296.235 112.5,295.5C 111.167,295.5 109.833,295.5 108.5,295.5C 102.345,293.423 96.0112,291.589 89.5,290C 90.1667,289.667 90.8333,289.333 91.5,289C 85.784,286.88 80.1173,284.714 74.5,282.5C 75.981,281.056 75.6477,280.389 73.5,280.5C 73.1667,279.167 72.8333,279.167 72.5,280.5C 66.4464,276.349 60.1131,272.182 53.5,268C 52.1667,267.333 52.1667,266.667 53.5,266C 52.5,265.667 51.5,265.333 50.5,265C 50.8333,264.667 51.1667,264.333 51.5,264C 48.2799,263.357 46.1133,261.524 45,258.5C 39.8724,254.374 35.0391,249.874 30.5,245C 31.2871,243.687 30.9538,242.52 29.5,241.5C 29.1667,240.167 28.8333,240.167 28.5,241.5C 26.3023,241.591 25.9689,240.925 27.5,239.5C 27.573,237.973 26.9063,236.973 25.5,236.5C 25.0679,235.29 24.4013,234.29 23.5,233.5C 23.1583,232.662 22.4916,232.328 21.5,232.5C 22.8333,231.5 22.8333,230.5 21.5,229.5C 21.1667,228.167 20.8333,228.167 20.5,229.5C 19.6618,229.158 19.3284,228.492 19.5,227.5C 19.5,227.167 19.5,226.833 19.5,226.5C 19.5,225.833 19.1667,225.5 18.5,225.5C 18.5,225.167 18.5,224.833 18.5,224.5C 18.5,223.833 18.1667,223.5 17.5,223.5C 17.5,222.833 17.1667,222.5 16.5,222.5C 16.5,222.167 16.5,221.833 16.5,221.5C 16.5,220.833 16.1667,220.5 15.5,220.5C 15.5,220.167 15.5,219.833 15.5,219.5C 15.5,218.833 15.1667,218.5 14.5,218.5C 14.5,218.167 14.5,217.833 14.5,217.5C 14.5,216.833 14.1667,216.5 13.5,216.5C 13.6716,215.508 13.3382,214.842 12.5,214.5C 12.6716,213.508 12.3382,212.842 11.5,212.5C 11.5,212.167 11.5,211.833 11.5,211.5C 11.5,210.833 11.1667,210.5 10.5,210.5C 10.5,210.167 10.5,209.833 10.5,209.5C 10.5,209.167 10.5,208.833 10.5,208.5C 10.1667,207.833 9.83333,207.167 9.5,206.5C 9.5,205.833 9.16667,205.5 8.5,205.5C 8.5,205.167 8.5,204.833 8.5,204.5C 8.67158,203.508 8.33825,202.842 7.5,202.5C 7.5,202.167 7.5,201.833 7.5,201.5C 7.67158,200.508 7.33825,199.842 6.5,199.5C 6.5,199.167 6.5,198.833 6.5,198.5C 6.16667,195.833 5.83333,195.833 5.5,198.5C 5.16667,198.5 4.83333,198.5 4.5,198.5C 4.16667,196.5 3.83333,194.5 3.5,192.5C 4.83333,191.5 4.83333,190.5 3.5,189.5C 3.64945,188.448 3.48278,187.448 3,186.5C 2.13759,188.087 1.47093,189.754 1,191.5C 0.303457,187.465 0.470124,183.465 1.5,179.5C 1.33333,178.833 1.16667,178.167 1,177.5C 0.76791,178.737 0.26791,179.737 -0.5,180.5C -0.5,179.167 -0.5,177.833 -0.5,176.5C 0.833333,175.167 0.833333,173.833 -0.5,172.5C -0.5,157.167 -0.5,141.833 -0.5,126.5C 0.657188,123.727 1.32385,120.727 1.5,117.5C 1.5,117.167 1.5,116.833 1.5,116.5C 2.43448,115.432 2.76781,114.099 2.5,112.5C 3.83333,111.5 3.83333,110.5 2.5,109.5C 3.19164,105.4 4.19164,101.4 5.5,97.5C 5.83333,97.5 6.16667,97.5 6.5,97.5C 6.83333,100.167 7.16667,100.167 7.5,97.5C 7.5,97.1667 7.5,96.8333 7.5,96.5C 8.16667,96.5 8.5,96.1667 8.5,95.5C 8.5,94.8333 8.5,94.1667 8.5,93.5C 9.16667,93.5 9.5,93.1667 9.5,92.5C 9.83333,91.8333 10.1667,91.1667 10.5,90.5C 10.5,89.8333 10.5,89.1667 10.5,88.5C 11.3382,88.1583 11.6716,87.4916 11.5,86.5C 12.3382,86.1583 12.6716,85.4916 12.5,84.5C 13.6737,83.4863 14.3404,82.153 14.5,80.5C 15.2674,79.828 15.9341,78.9947 16.5,78C 15.1669,76.1598 15.3335,75.6598 17,76.5C 18.6883,75.6753 18.8549,74.6753 17.5,73.5C 18,72.5 18.5,71.5 19,70.5C 19.7697,71.5981 20.603,71.5981 21.5,70.5C 28.111,61.2193 35.111,52.2193 42.5,43.5C 42.8333,42.8333 43.1667,42.1667 43.5,41.5C 46.9279,37.5552 50.9279,33.3885 55.5,29C 56.8333,28.6667 58.1667,28.3333 59.5,28C 62.5138,26.3284 64.5138,24.3284 65.5,22C 67.5183,21.4954 69.5183,20.9954 71.5,20.5C 76.6981,18.0695 81.6981,15.4028 86.5,12.5C 87.5903,11.1429 88.9236,10.1429 90.5,9.5C 92.2161,9.37133 93.8828,9.038 95.5,8.5C 96.8333,8.16667 96.8333,7.83333 95.5,7.5C 95.1667,7.5 94.8333,7.5 94.5,7.5C 94.5,7.16667 94.5,6.83333 94.5,6.5C 94.8333,6.5 95.1667,6.5 95.5,6.5C 99.2503,6.54537 102.584,5.8787 105.5,4.5C 106.791,4.73731 107.791,4.40397 108.5,3.5C 112.838,3.37808 113.172,3.04474 109.5,2.5C 110.5,1.83333 111.5,1.16667 112.5,0.5C 114.099,0.767809 115.432,0.434475 116.5,-0.5 Z"/></g>
<g><path style="opacity:0.996" fill="#f1b773" d="M 184.5,59.5 C 220.533,74.7223 242.033,101.722 249,140.5C 251.335,195.707 226.501,232.207 174.5,250C 127.645,259.613 90.8116,244.779 64,205.5C 59.914,198.002 56.414,190.335 53.5,182.5C 41.7271,128.886 59.7271,88.7195 107.5,62C 132.836,51.5725 158.503,50.7392 184.5,59.5 Z"/></g>
<g><path style="opacity:0.996" fill="#9289b7" d="M 140.5,56.5 C 190.388,55.6648 224.222,78.3315 242,124.5C 252.392,166.135 241.559,200.969 209.5,229C 180.756,249.88 149.423,254.88 115.5,244C 91.8166,234.65 74.1499,218.65 62.5,196C 66.4862,195.501 70.4862,195.334 74.5,195.5C 74.5132,180.305 73.8466,165.138 72.5,150C 72.3644,146.948 73.0311,144.114 74.5,141.5C 75.7481,142.04 76.9148,142.707 78,143.5C 78.0441,159.9 78.7108,176.233 80,192.5C 85.0726,201.569 92.5726,207.735 102.5,211C 112.258,214.404 122.258,216.737 132.5,218C 158.298,221.1 183.298,218.1 207.5,209C 215.218,205.947 221.052,200.781 225,193.5C 226.124,176.889 226.957,160.223 227.5,143.5C 232.709,140.402 237.709,137.068 242.5,133.5C 212.769,118.635 182.769,104.301 152.5,90.5C 122.262,104.285 92.2621,118.619 62.5,133.5C 63.4756,135.123 62.9756,136.457 61,137.5C 61.2242,154.163 60.5575,170.83 59,187.5C 46.3991,150.421 52.7324,117.088 78,87.5C 95.2584,69.7872 116.092,59.4539 140.5,56.5 Z"/></g>
<g><path style="opacity:0.996" fill="#9189b7" d="M 151.5,95.5 C 178.741,107.787 205.741,120.62 232.5,134C 206.766,150.729 180.766,167.062 154.5,183C 153.167,183.667 151.833,183.667 150.5,183C 124.5,166.667 98.5,150.333 72.5,134C 98.9248,121.12 125.258,108.286 151.5,95.5 Z"/></g>
<g><path style="opacity:0.996" fill="#574a90" d="M 206.5,16.5 C 246.274,34.4478 273.441,64.1145 288,105.5C 303.635,166.479 288.468,218.313 242.5,261C 241.906,261.464 241.239,261.631 240.5,261.5C 240.089,259.228 238.922,258.895 237,260.5C 235.378,260.046 234.212,259.046 233.5,257.5C 235.858,255.976 237.691,253.976 239,251.5C 239.713,247.574 239.379,243.908 238,240.5C 244.651,243.868 250.318,242.534 255,236.5C 255.755,233.697 255.422,231.03 254,228.5C 252.533,231.266 250.7,233.766 248.5,236C 246.5,236.667 244.5,236.667 242.5,236C 241.549,235.282 241.383,234.449 242,233.5C 244.948,231.225 247.114,228.391 248.5,225C 247.057,221.857 244.557,220.357 241,220.5C 236.667,220.5 233.667,222.5 232,226.5C 231.256,229.871 231.756,233.037 233.5,236C 230.24,235.518 226.907,235.518 223.5,236C 222.134,237.6 221.134,239.433 220.5,241.5C 218.417,238.75 216.084,236.417 213.5,234.5C 210.866,235.487 208.532,236.987 206.5,239C 215.211,239.307 216.378,242.14 210,247.5C 209.105,249.804 208.271,252.138 207.5,254.5C 204.711,252.702 201.711,252.202 198.5,253C 197.107,254.171 196.273,255.671 196,257.5C 194.875,254.11 193.375,250.943 191.5,248C 188.147,247.784 185.147,248.784 182.5,251C 187.258,250.592 189.591,252.759 189.5,257.5C 185.411,257.588 182.744,259.588 181.5,263.5C 180.088,267.889 180.588,272.222 183,276.5C 187.713,281.818 192.38,281.818 197,276.5C 198.233,279.422 199.733,282.089 201.5,284.5C 141.846,304.839 89.5131,293.173 44.5,249.5C 45.2096,247.254 45.7096,244.92 46,242.5C 46.414,242.043 46.914,241.709 47.5,241.5C 49.6898,243.524 52.0232,245.357 54.5,247C 57.7107,247.798 60.7107,247.298 63.5,245.5C 62.3895,251.405 64.0561,256.572 68.5,261C 71.5541,261.821 74.5541,261.655 77.5,260.5C 71.6204,258.546 69.287,254.712 70.5,249C 71.1667,248.333 71.8333,248.333 72.5,249C 81.6594,258.833 85.826,257 85,243.5C 81.301,238.707 76.6343,237.373 71,239.5C 72.0081,233.677 69.8414,229.844 64.5,228C 66.7594,226.285 68.9261,224.452 71,222.5C 71.6667,221.5 71.6667,220.5 71,219.5C 69.4905,217.792 67.9905,216.126 66.5,214.5C 67.2722,217.878 65.9388,220.545 62.5,222.5C 59.5372,217.685 55.2039,215.519 49.5,216C 52.9115,212.271 53.2448,208.437 50.5,204.5C 49.7375,203.732 48.7375,203.232 47.5,203C 49.9562,201.289 52.6229,199.956 55.5,199C 56.3613,195.834 55.5279,193 53,190.5C 52.79,192.058 52.29,193.391 51.5,194.5C 51.7818,190.426 52.4485,186.426 53.5,182.5C 56.414,190.335 59.914,198.002 64,205.5C 90.8116,244.779 127.645,259.613 174.5,250C 226.501,232.207 251.335,195.707 249,140.5C 242.033,101.722 220.533,74.7223 184.5,59.5C 187.097,59.2792 187.097,58.7792 184.5,58C 186.078,56.9055 187.745,56.0722 189.5,55.5C 192,57.4503 194.667,58.117 197.5,57.5C 195.48,55.4006 195.146,53.0673 196.5,50.5C 207.336,54.069 213.336,50.069 214.5,38.5C 214.297,33.9641 211.964,31.2974 207.5,30.5C 206.416,30.685 205.416,31.0183 204.5,31.5C 205.058,28.6557 205.725,25.8224 206.5,23C 206.138,21.5657 205.472,20.3991 204.5,19.5C 204.042,18.2279 204.709,17.2279 206.5,16.5 Z"/></g>
<g><path style="opacity:0.996" fill="#bba3a5" d="M 278.5,123.5 C 283.184,125.186 284.684,128.519 283,133.5C 281.421,135.041 279.587,136.208 277.5,137C 273.72,137.854 270.054,139.021 266.5,140.5C 265.833,141.833 265.167,143.167 264.5,144.5C 262.716,141.602 262.382,138.602 263.5,135.5C 267.807,133.898 272.14,132.398 276.5,131C 277.752,129.172 277.752,127.339 276.5,125.5C 275.737,124.732 274.737,124.232 273.5,124C 275.134,123.506 276.801,123.34 278.5,123.5 Z"/></g>
<g><path style="opacity:0.996" fill="#9e90b1" d="M 278.5,123.5 C 276.801,123.34 275.134,123.506 273.5,124C 274.737,124.232 275.737,124.732 276.5,125.5C 271.674,125.166 267.174,126.166 263,128.5C 262.781,129.938 262.281,131.271 261.5,132.5C 259.529,129.635 258.863,126.635 259.5,123.5C 264.203,122.099 268.87,120.599 273.5,119C 274.554,117.612 274.72,116.112 274,114.5C 269.343,113.06 264.843,113.56 260.5,116C 259.107,117.171 258.273,118.671 258,120.5C 256.254,117.397 255.754,114.231 256.5,111C 262.223,109.486 267.89,107.82 273.5,106C 274.071,104.795 274.738,103.628 275.5,102.5C 277.494,105.15 278.494,108.15 278.5,111.5C 277.448,111.351 276.448,111.517 275.5,112C 280.811,114.694 281.811,118.528 278.5,123.5 Z"/></g>
<g><path style="opacity:0.996" fill="#b09caa" d="M 260.5,76.5 C 262.871,78.209 264.538,80.5423 265.5,83.5C 263.95,85.622 261.95,87.2886 259.5,88.5C 261.745,90.6227 264.412,91.6227 267.5,91.5C 267.281,90.325 267.614,89.325 268.5,88.5C 270.393,90.9524 271.726,93.6191 272.5,96.5C 268.646,96.159 265.146,94.8256 262,92.5C 261.41,97.4412 259.41,101.775 256,105.5C 255.667,107.167 255.333,108.833 255,110.5C 253.304,108.44 252.137,106.107 251.5,103.5C 252.816,100.205 254.649,97.2045 257,94.5C 257.49,93.2068 257.657,91.8734 257.5,90.5C 252.642,91.0929 249.642,93.7596 248.5,98.5C 247.035,96.4006 245.701,94.2339 244.5,92C 249.172,88.3562 254.172,85.0228 259.5,82C 260.406,80.3005 260.739,78.4672 260.5,76.5 Z"/></g>
<g><path style="opacity:0.996" fill="#c0a6a4" d="M 233.5,36.5 C 236.427,37.7573 238.761,39.7573 240.5,42.5C 239.029,45.136 237.363,47.636 235.5,50C 239.02,50.504 241.52,52.3374 243,55.5C 243.425,58.6725 243.091,61.6725 242,64.5C 248.404,61.5198 253.404,63.1865 257,69.5C 257.962,74.7801 256.129,78.7801 251.5,81.5C 249.044,78.542 246.378,75.7087 243.5,73C 242.551,72.3828 241.718,72.5494 241,73.5C 239.74,78.8138 241.574,82.6471 246.5,85C 236.624,85.4423 232.958,80.7757 235.5,71C 232.167,70.6667 228.833,70.3333 225.5,70C 223.241,66.6236 221.241,66.7903 219.5,70.5C 222.593,74.4501 221.926,75.2834 217.5,73C 215.876,71.8829 214.876,70.3829 214.5,68.5C 215.744,65.9133 217.411,63.5799 219.5,61.5C 212.705,61.4947 209.872,57.828 211,50.5C 216.056,40.7642 222.889,39.0975 231.5,45.5C 234.525,43.0624 235.192,40.0624 233.5,36.5 Z"/></g>
<g><path style="opacity:0.996" fill="#574b90" d="M 245.5,67.5 C 253.643,66.2149 255.476,68.8815 251,75.5C 249.039,72.8647 246.539,71.0314 243.5,70C 244.381,69.2917 245.047,68.4584 245.5,67.5 Z"/></g>
<g><path style="opacity:0.996" fill="#594c91" d="M 231.5,54.5 C 236,54.1638 237.833,56.1638 237,60.5C 235.062,65.4581 231.562,67.2914 226.5,66C 225.446,64.6124 225.28,63.1124 226,61.5C 227.666,59.0043 229.5,56.671 231.5,54.5 Z"/></g>
<g><path style="opacity:0.996" fill="#594c91" d="M 221.5,45.5 C 229.298,45.7713 230.465,48.7713 225,54.5C 221.208,60.1652 218.375,59.8318 216.5,53.5C 217.366,50.3075 219.032,47.6408 221.5,45.5 Z"/></g>
<g><path style="opacity:0.996" fill="#c1a7a4" d="M 187.5,27.5 C 189.153,27.6596 190.486,28.3263 191.5,29.5C 187.307,33.1565 186.64,37.3231 189.5,42C 190.833,42.6667 192.167,42.6667 193.5,42C 194.642,39.5501 195.642,37.0501 196.5,34.5C 197.434,33.4324 197.768,32.099 197.5,30.5C 199.46,31.1383 201.293,31.1383 203,30.5C 203.333,31.1667 203.667,31.8333 204,32.5C 204.399,32.2716 204.565,31.9382 204.5,31.5C 205.416,31.0183 206.416,30.685 207.5,30.5C 211.964,31.2974 214.297,33.9641 214.5,38.5C 213.336,50.069 207.336,54.069 196.5,50.5C 195.146,53.0673 195.48,55.4006 197.5,57.5C 194.667,58.117 192,57.4503 189.5,55.5C 189.506,52.1498 190.506,49.1498 192.5,46.5C 181.769,46.0643 178.935,40.731 184,30.5C 185.039,29.2899 186.206,28.2899 187.5,27.5 Z"/></g>
<g><path style="opacity:0.996" fill="#584c90" d="M 202.5,34.5 C 206.176,34.3192 208.176,35.9858 208.5,39.5C 208.586,45.243 205.919,48.0763 200.5,48C 199.196,47.196 198.529,46.0293 198.5,44.5C 199.846,41.146 201.179,37.8127 202.5,34.5 Z"/></g>
<g><path style="opacity:0.996" fill="#564a90" d="M 191.5,29.5 C 193.167,29.5 194.833,29.5 196.5,29.5C 196.5,31.1667 196.5,32.8333 196.5,34.5C 195.642,37.0501 194.642,39.5501 193.5,42C 192.167,42.6667 190.833,42.6667 189.5,42C 186.64,37.3231 187.307,33.1565 191.5,29.5 Z"/></g>
<g><path style="opacity:0.996" fill="#9c8eaf" d="M 204.5,19.5 C 205.472,20.3991 206.138,21.5657 206.5,23C 205.725,25.8224 205.058,28.6557 204.5,31.5C 204.565,31.9382 204.399,32.2716 204,32.5C 203.667,31.8333 203.333,31.1667 203,30.5C 201.293,31.1383 199.46,31.1383 197.5,30.5C 197.768,32.099 197.434,33.4324 196.5,34.5C 196.5,32.8333 196.5,31.1667 196.5,29.5C 194.833,29.5 193.167,29.5 191.5,29.5C 190.486,28.3263 189.153,27.6596 187.5,27.5C 191.225,24.8525 195.058,24.8525 199,27.5C 202.437,24.3079 202.271,21.3079 198.5,18.5C 198.833,18.1667 199.167,17.8333 199.5,17.5C 201.075,18.4565 202.742,19.1231 204.5,19.5 Z"/></g>
<g><path style="opacity:0.996" fill="#574a90" d="M 206.5,16.5 C 204.709,17.2279 204.042,18.2279 204.5,19.5C 202.742,19.1231 201.075,18.4565 199.5,17.5C 199.167,17.8333 198.833,18.1667 198.5,18.5C 202.271,21.3079 202.437,24.3079 199,27.5C 195.058,24.8525 191.225,24.8525 187.5,27.5C 186.206,28.2899 185.039,29.2899 184,30.5C 178.935,40.731 181.769,46.0643 192.5,46.5C 190.506,49.1498 189.506,52.1498 189.5,55.5C 187.745,56.0722 186.078,56.9055 184.5,58C 187.097,58.7792 187.097,59.2792 184.5,59.5C 158.503,50.7392 132.836,51.5725 107.5,62C 59.7271,88.7195 41.7271,128.886 53.5,182.5C 52.4485,186.426 51.7818,190.426 51.5,194.5C 50.2196,195.931 48.5529,196.598 46.5,196.5C 44.0919,189.295 39.0919,186.795 31.5,189C 24.2713,191.621 22.1047,196.454 25,203.5C 26.0674,204.191 27.2341,204.691 28.5,205C 25.2738,206.106 22.6071,207.939 20.5,210.5C 21.5773,212.912 22.744,215.246 24,217.5C 23.9742,213.695 25.8076,211.695 29.5,211.5C 29.9289,216.385 32.5956,219.051 37.5,219.5C 40.2518,219.422 42.9184,219.255 45.5,219C 40.1212,222.248 38.6212,226.748 41,232.5C 42.4907,234.004 44.324,234.837 46.5,235C 44.1232,236.976 42.1232,239.143 40.5,241.5C 41.5186,243.511 42.5186,245.511 43.5,247.5C 20.1234,222.581 7.29005,192.914 5,158.5C 3.67531,93.5371 31.842,46.3705 89.5,17C 128.478,0.500868 167.478,0.334202 206.5,16.5 Z"/></g>
<g><path style="opacity:0.996" fill="#af9aa9" d="M 21.5,124.5 C 28.9014,123.432 34.4014,126.098 38,132.5C 39.4759,139.844 36.6426,143.177 29.5,142.5C 33.7585,138.066 33.4251,134.066 28.5,130.5C 27.6816,133.107 27.1816,135.774 27,138.5C 24.7492,135.983 23.9159,132.983 24.5,129.5C 19.4989,128.671 17.3322,130.671 18,135.5C 19.3068,136.772 20.8068,137.772 22.5,138.5C 20.0801,141.358 17.5801,141.691 15,139.5C 12.8653,132.45 15.032,127.45 21.5,124.5 Z"/></g>
<g><path style="opacity:0.996" fill="#9b8eb2" d="M 41.5,92.5 C 47.6994,96.5057 49.0328,101.839 45.5,108.5C 48.342,111.283 50.842,110.95 53,107.5C 53.0601,115.534 49.5601,117.534 42.5,113.5C 42.1959,122.199 37.5292,125.365 28.5,123C 21.1002,119.131 19.1002,113.464 22.5,106C 19.4223,102.523 16.589,102.69 14,106.5C 13.2228,102.721 14.5561,100.054 18,98.5C 21.139,99.7744 24.3056,100.608 27.5,101C 25.6751,99.5341 25.1751,97.7008 26,95.5C 30.2248,90.0128 35.3915,89.0128 41.5,92.5 Z"/></g>
<g><path style="opacity:0.996" fill="#564a91" d="M 25.5,108.5 C 29.4361,108.478 33.1027,109.478 36.5,111.5C 38.5754,115.823 37.242,117.823 32.5,117.5C 25.8801,117.567 23.5468,114.567 25.5,108.5 Z"/></g>
<g><path style="opacity:0.996" fill="#574b91" d="M 31.5,96.5 C 36.0394,95.9569 39.8727,97.2902 43,100.5C 44.2928,103.862 43.2928,105.862 40,106.5C 37.1252,105.647 34.2919,104.647 31.5,103.5C 30.4249,101.189 30.4249,98.8555 31.5,96.5 Z"/></g>
<g><path style="opacity:0.996" fill="#bea5a4" d="M 44.5,93.5 C 44.9175,92.7784 45.5842,92.2784 46.5,92C 44.5049,91.0764 44.1716,89.9097 45.5,88.5C 49.1976,89.3202 51.5309,87.9869 52.5,84.5C 50.4567,81.4569 47.7901,79.1236 44.5,77.5C 40.8204,76.5402 40.8204,75.0402 44.5,73C 44.1667,72.6667 43.8333,72.3333 43.5,72C 44.646,71.3551 45.646,70.5217 46.5,69.5C 47.1067,69.6236 47.44,69.9569 47.5,70.5C 47.3505,71.552 47.5172,72.552 48,73.5C 51.3431,76.6004 55.1764,78.1004 59.5,78C 61.2389,73.2002 59.5723,70.0335 54.5,68.5C 53.3915,67.71 52.0581,67.21 50.5,67C 51.5,66.6667 52.5,66.3333 53.5,66C 52.1667,65.3333 52.1667,64.6667 53.5,64C 54.448,63.5172 55.448,63.3505 56.5,63.5C 59.7075,64.975 60.2075,64.3084 58,61.5C 56.0722,49.4259 60.9055,45.2592 72.5,49C 73.6872,50.0195 74.6872,51.1861 75.5,52.5C 73.1457,55.688 70.3124,58.3547 67,60.5C 66.3333,61.1667 66.3333,61.8333 67,62.5C 72.6366,64.8778 76.6366,63.2111 79,57.5C 80.9916,63.3373 79.1582,67.1706 73.5,69C 70.2397,69.7835 67.0731,69.6168 64,68.5C 65.2875,73.5257 64.4542,78.1924 61.5,82.5C 61.7093,83.086 62.0426,83.586 62.5,84C 69.8059,82.9157 70.4726,84.9157 64.5,90C 63.5,90.6667 62.5,90.6667 61.5,90C 58.3638,85.8655 56.5305,86.0322 56,90.5C 52.8641,94.3255 49.0308,95.3255 44.5,93.5 Z"/></g>
<g><path style="opacity:0.996" fill="#574b91" d="M 44.5,77.5 C 47.7901,79.1236 50.4567,81.4569 52.5,84.5C 51.5309,87.9869 49.1976,89.3202 45.5,88.5C 42.8019,86.7992 40.8019,84.4659 39.5,81.5C 39.981,78.6857 41.6477,77.3524 44.5,77.5 Z"/></g>
<g><path style="opacity:0.996" fill="#ab98aa" d="M 56.5,63.5 C 55.448,63.3505 54.448,63.5172 53.5,64C 52.1667,64.6667 52.1667,65.3333 53.5,66C 52.5,66.3333 51.5,66.6667 50.5,67C 52.0581,67.21 53.3915,67.71 54.5,68.5C 51.812,68.1658 49.4786,68.8325 47.5,70.5C 47.44,69.9569 47.1067,69.6236 46.5,69.5C 45.646,70.5217 44.646,71.3551 43.5,72C 43.8333,72.3333 44.1667,72.6667 44.5,73C 40.8204,75.0402 40.8204,76.5402 44.5,77.5C 41.6477,77.3524 39.981,78.6857 39.5,81.5C 40.8019,84.4659 42.8019,86.7992 45.5,88.5C 44.1716,89.9097 44.5049,91.0764 46.5,92C 45.5842,92.2784 44.9175,92.7784 44.5,93.5C 43.609,92.8902 42.609,92.5569 41.5,92.5C 35.03,87.1808 34.03,81.0141 38.5,74C 36.1866,70.9628 33.6866,70.7961 31,73.5C 30.3333,72.5 30.3333,71.5 31,70.5C 32.46,68.5343 34.1266,66.8677 36,65.5C 38.9223,66.7553 41.589,68.422 44,70.5C 45.1187,62.7608 49.2853,60.4274 56.5,63.5 Z"/></g>
<g><path style="opacity:0.996" fill="#564a90" d="M 54.5,68.5 C 59.5723,70.0335 61.2389,73.2002 59.5,78C 55.1764,78.1004 51.3431,76.6004 48,73.5C 47.5172,72.552 47.3505,71.552 47.5,70.5C 49.4786,68.8325 51.812,68.1658 54.5,68.5 Z"/></g>
<g><path style="opacity:0.996" fill="#b9a1a6" d="M 87.5,31.5 C 88.5,31.5 89.5,31.5 90.5,31.5C 89.5937,35.1488 88.2604,38.6488 86.5,42C 92.5551,43.5319 98.2218,45.8653 103.5,49C 101.626,50.435 99.6264,51.6016 97.5,52.5C 94.2045,51.184 91.2045,49.3506 88.5,47C 87.2068,46.51 85.8734,46.3433 84.5,46.5C 84.6518,51.8359 87.3185,54.8359 92.5,55.5C 90.4006,56.9652 88.2339,58.2985 86,59.5C 85.228,59.3552 84.5613,59.0219 84,58.5C 81.3653,53.7017 78.5319,49.0351 75.5,44.5C 73.8333,43.8333 72.1667,43.1667 70.5,42.5C 72.5994,41.0348 74.7661,39.7015 77,38.5C 79.5089,39.8288 81.3422,41.8288 82.5,44.5C 83.6924,42.2585 84.6924,39.9252 85.5,37.5C 84.5,36.8333 83.5,36.1667 82.5,35.5C 84.4192,34.3875 86.0858,33.0542 87.5,31.5 Z"/></g>
<g><path style="opacity:0.996" fill="#594c90" d="M 63.5,50.5 C 70.7074,51.5629 71.2074,53.8963 65,57.5C 64.6667,58.5 64.3333,59.5 64,60.5C 60.8563,57.3081 60.6896,53.9748 63.5,50.5 Z"/></g>
<g><path style="opacity:0.996" fill="#c3a8a4" d="M 180.5,33.5 C 179.652,39.5101 176.152,42.5101 170,42.5C 164.567,41.9841 162.234,38.9841 163,33.5C 167.376,38.6998 171.543,38.6998 175.5,33.5C 175.736,32.284 175.736,31.1174 175.5,30C 177.107,30.0187 178.774,30.1854 180.5,30.5C 180.5,31.5 180.5,32.5 180.5,33.5 Z"/></g>
<g><path style="opacity:0.996" fill="#ac99ac" d="M 120.5,19.5 C 123.862,19.0695 126.695,20.0695 129,22.5C 130.667,27.1667 132.333,31.8333 134,36.5C 134.903,37.7014 136.069,38.5348 137.5,39C 134.911,40.3141 132.244,40.9808 129.5,41C 127.621,36.6608 126.121,32.1608 125,27.5C 121.828,24.6117 119.661,25.2784 118.5,29.5C 119.514,33.2252 120.681,36.8919 122,40.5C 123.067,41.1905 124.234,41.6905 125.5,42C 122.976,43.5132 120.309,44.1799 117.5,44C 115.913,40.3182 114.747,36.4848 114,32.5C 112.492,28.326 110.159,27.6593 107,30.5C 107.057,34.982 108.057,39.3154 110,43.5C 111.205,44.0712 112.372,44.7379 113.5,45.5C 110.673,46.9322 107.673,47.5988 104.5,47.5C 103.276,42.5518 102.109,37.5518 101,32.5C 100.065,29.8981 98.2317,28.3981 95.5,28C 98.7918,25.2312 102.125,25.0645 105.5,27.5C 108.023,22.3285 111.689,21.3285 116.5,24.5C 117.152,22.192 118.485,20.5253 120.5,19.5 Z"/></g>
<g><path style="opacity:0.996" fill="#9c8eae" d="M 180.5,33.5 C 180.5,32.5 180.5,31.5 180.5,30.5C 178.774,30.1854 177.107,30.0187 175.5,30C 175.736,31.1174 175.736,32.284 175.5,33.5C 172.972,32.8343 170.306,32.1676 167.5,31.5C 167.977,30.5224 168.643,29.6891 169.5,29C 171.81,28.5034 174.143,28.3367 176.5,28.5C 176.648,21.4364 174.148,20.1031 169,24.5C 168.667,25.5 168.333,26.5 168,27.5C 163.842,22.6383 164.842,19.6383 171,18.5C 179.895,20.1773 183.061,25.1773 180.5,33.5 Z"/></g>
<g><path style="opacity:0.996" fill="#988bb0" d="M 65.5,139.5 C 66.5,139.5 67.5,139.5 68.5,139.5C 68.5,140.5 68.5,141.5 68.5,142.5C 67.5,142.5 66.5,142.5 65.5,142.5C 65.5,141.5 65.5,140.5 65.5,139.5 Z"/></g>
<g><path style="opacity:0.996" fill="#9189b7" d="M 83.5,147.5 C 106.739,161.703 129.906,176.037 153,190.5C 175.4,176.381 197.9,162.381 220.5,148.5C 221.666,162.488 221.833,176.488 221,190.5C 218.55,195.284 215.05,199.117 210.5,202C 198.276,208.307 185.276,211.974 171.5,213C 151.599,214.653 131.933,213.32 112.5,209C 101.072,206.546 91.9057,200.713 85,191.5C 83.5502,176.905 83.0502,162.239 83.5,147.5 Z"/></g>
<g><path style="opacity:0.004" fill="#ffcfbe" d="M 298.5,177.5 C 298.833,177.5 299.167,177.5 299.5,177.5C 299.5,178.5 299.5,179.5 299.5,180.5C 299.167,180.5 298.833,180.5 298.5,180.5C 298.5,179.5 298.5,178.5 298.5,177.5 Z"/></g>
<g><path style="opacity:0.996" fill="#978cb1" d="M 66.5,148.5 C 67.3091,150.292 67.8091,152.292 68,154.5C 68.6997,166.494 69.1997,178.494 69.5,190.5C 67.8333,190.5 66.1667,190.5 64.5,190.5C 65.0341,176.493 65.7008,162.493 66.5,148.5 Z"/></g>
<g><path style="opacity:0.996" fill="#b39da9" d="M 261.5,184.5 C 258.933,182.765 258.933,180.765 261.5,178.5C 261.376,177.893 261.043,177.56 260.5,177.5C 258.101,171.729 259.935,168.062 266,166.5C 270.463,167.908 274.963,169.241 279.5,170.5C 281.397,170.272 282.73,169.272 283.5,167.5C 283.833,168 284.167,168.5 284.5,169C 283.521,171.433 282.855,173.933 282.5,176.5C 276.92,174.698 271.254,173.531 265.5,173C 262.659,176.159 263.326,178.492 267.5,180C 271.875,182.085 276.042,181.918 280,179.5C 280.328,182.207 279.995,184.874 279,187.5C 278.439,188.022 277.772,188.355 277,188.5C 272.007,186.446 266.84,185.112 261.5,184.5 Z"/></g>
<g><path style="opacity:0.996" fill="#b29daa" d="M 34.5,168.5 C 41.9011,171.44 43.4011,176.44 39,183.5C 31.8872,189.061 25.2205,188.728 19,182.5C 16.2484,177.33 17.4151,173.33 22.5,170.5C 22.3388,173.394 22.6721,176.394 23.5,179.5C 25.2601,182.021 27.5934,182.854 30.5,182C 29.009,179.903 28.009,177.57 27.5,175C 28.7839,174.316 29.9505,174.483 31,175.5C 31.813,177.436 32.313,179.436 32.5,181.5C 37.2807,180.909 38.9474,178.409 37.5,174C 35.4233,173.808 33.4233,173.308 31.5,172.5C 32.5244,171.148 33.5244,169.815 34.5,168.5 Z"/></g>
<g><path style="opacity:0.004" fill="#221a0c" d="M 295.5,188.5 C 295.833,188.5 296.167,188.5 296.5,188.5C 296.833,188.5 297.167,188.5 297.5,188.5C 298.01,192.813 297.343,196.813 295.5,200.5C 294.833,199.833 294.167,199.167 293.5,198.5C 293.5,197.5 293.5,196.5 293.5,195.5C 293.5,195.167 293.5,194.833 293.5,194.5C 294.338,194.158 294.672,193.492 294.5,192.5C 294.5,192.167 294.5,191.833 294.5,191.5C 295.404,190.791 295.737,189.791 295.5,188.5 Z"/></g>
<g><path style="opacity:0.996" fill="#9489b3" d="M 260.5,177.5 C 261.043,177.56 261.376,177.893 261.5,178.5C 258.933,180.765 258.933,182.765 261.5,184.5C 259.887,187.547 260.554,190.047 263.5,192C 266.529,192.732 269.529,193.565 272.5,194.5C 274.397,194.272 275.73,193.272 276.5,191.5C 276.833,191.833 277.167,192.167 277.5,192.5C 276.215,195.021 275.548,197.687 275.5,200.5C 269.063,199.307 262.729,197.64 256.5,195.5C 254.971,195.529 253.804,196.196 253,197.5C 252.071,193.24 253.571,190.406 257.5,189C 254.496,184.201 255.496,180.368 260.5,177.5 Z"/></g>
<g><path style="opacity:0.004" fill="#ffd05b" d="M 3.5,189.5 C 3.5,190.5 3.5,191.5 3.5,192.5C 2.16667,191.5 2.16667,190.5 3.5,189.5 Z"/></g>
<g><path style="opacity:0.996" fill="#9b8fb1" d="M 51.5,194.5 C 52.29,193.391 52.79,192.058 53,190.5C 55.5279,193 56.3613,195.834 55.5,199C 52.6229,199.956 49.9562,201.289 47.5,203C 48.7375,203.232 49.7375,203.732 50.5,204.5C 49.0804,205.811 47.7471,206.477 46.5,206.5C 45.5178,205.859 44.5178,205.193 43.5,204.5C 40.7163,205.392 38.0496,206.558 35.5,208C 32.9142,210.494 32.9142,212.994 35.5,215.5C 35.0618,215.435 34.7284,215.601 34.5,216C 36.4257,216.422 37.4257,217.589 37.5,219.5C 32.5956,219.051 29.9289,216.385 29.5,211.5C 25.8076,211.695 23.9742,213.695 24,217.5C 22.744,215.246 21.5773,212.912 20.5,210.5C 22.6071,207.939 25.2738,206.106 28.5,205C 27.2341,204.691 26.0674,204.191 25,203.5C 22.1047,196.454 24.2713,191.621 31.5,189C 39.0919,186.795 44.0919,189.295 46.5,196.5C 48.5529,196.598 50.2196,195.931 51.5,194.5 Z"/></g>
<g><path style="opacity:0.996" fill="#574c91" d="M 35.5,192.5 C 40.5011,191.671 42.6678,193.671 42,198.5C 38.8756,200.311 35.709,201.978 32.5,203.5C 29.7468,201.957 28.9135,199.624 30,196.5C 31.8121,195.023 33.6455,193.69 35.5,192.5 Z"/></g>
<g><path style="opacity:0.004" fill="#211416" d="M 4.5,198.5 C 4.83333,198.5 5.16667,198.5 5.5,198.5C 5.83333,198.5 6.16667,198.5 6.5,198.5C 6.5,198.833 6.5,199.167 6.5,199.5C 6.32842,200.492 6.66175,201.158 7.5,201.5C 7.5,201.833 7.5,202.167 7.5,202.5C 7.32842,203.492 7.66175,204.158 8.5,204.5C 8.5,204.833 8.5,205.167 8.5,205.5C 9.16667,205.5 9.5,205.833 9.5,206.5C 9.83333,207.167 10.1667,207.833 10.5,208.5C 9.16667,208.833 9.16667,209.167 10.5,209.5C 10.5,209.833 10.5,210.167 10.5,210.5C 11.1667,210.5 11.5,210.833 11.5,211.5C 11.5,211.833 11.5,212.167 11.5,212.5C 11.3284,213.492 11.6618,214.158 12.5,214.5C 12.3284,215.492 12.6618,216.158 13.5,216.5C 14.1667,216.5 14.5,216.833 14.5,217.5C 14.5,217.833 14.5,218.167 14.5,218.5C 15.1667,218.5 15.5,218.833 15.5,219.5C 15.5,219.833 15.5,220.167 15.5,220.5C 16.1667,220.5 16.5,220.833 16.5,221.5C 16.5,221.833 16.5,222.167 16.5,222.5C 16.5,222.833 16.5,223.167 16.5,223.5C 15.8333,223.5 15.5,223.833 15.5,224.5C 12.8672,218.571 9.70056,212.904 6,207.5C 4.85123,204.607 4.35123,201.607 4.5,198.5 Z"/></g>
<g><path style="opacity:0.004" fill="#fe0000" d="M 292.5,198.5 C 292.833,198.5 293.167,198.5 293.5,198.5C 293.167,201.167 292.833,201.167 292.5,198.5 Z"/></g>
<g><path style="opacity:0.004" fill="#000000" d="M 295.5,200.5 C 296.167,200.5 296.5,200.833 296.5,201.5C 296.167,201.167 295.833,200.833 295.5,200.5 Z"/></g>
<g><path style="opacity:0.004" fill="#000000" d="M 296.5,201.5 C 297.598,202.601 297.765,203.934 297,205.5C 296.51,204.207 296.343,202.873 296.5,201.5 Z"/></g>
<g><path style="opacity:0.996" fill="#574b91" d="M 46.5,206.5 C 46.7529,208.827 46.0863,210.827 44.5,212.5C 41.7659,214.371 38.7659,215.371 35.5,215.5C 32.9142,212.994 32.9142,210.494 35.5,208C 38.0496,206.558 40.7163,205.392 43.5,204.5C 44.5178,205.193 45.5178,205.859 46.5,206.5 Z"/></g>
<g><path style="opacity:0.004" fill="#2b1018" d="M 289.5,205.5 C 289.5,204.833 289.833,204.5 290.5,204.5C 291.239,204.369 291.906,204.536 292.5,205C 291.929,206.205 291.262,207.372 290.5,208.5C 289.893,208.376 289.56,208.043 289.5,207.5C 289.5,207.167 289.5,206.833 289.5,206.5C 290.833,206.167 290.833,205.833 289.5,205.5 Z"/></g>
<g><path style="opacity:0.004" fill="#fefffe" d="M 287.5,212.5 C 287.833,212.5 288.167,212.5 288.5,212.5C 288.315,213.17 287.981,213.17 287.5,212.5 Z"/></g>
<g><path style="opacity:0.004" fill="#000000" d="M 295.5,212.5 C 297.258,225.636 297.758,238.969 297,252.5C 295.556,239.24 295.056,225.907 295.5,212.5 Z"/></g>
<g><path style="opacity:0.004" fill="#fefffe" d="M 285.5,216.5 C 285.833,216.5 286.167,216.5 286.5,216.5C 286.315,217.17 285.981,217.17 285.5,216.5 Z"/></g>
<g><path style="opacity:0.996" fill="#af9baa" d="M 250.5,199.5 C 251.675,199.281 252.675,199.614 253.5,200.5C 254.085,203.503 254.752,206.503 255.5,209.5C 256.308,209.192 256.975,208.692 257.5,208C 262.907,207.565 268.24,207.232 273.5,207C 272.167,209 270.833,211 269.5,213C 264.859,213.317 260.359,213.484 256,213.5C 255.251,214.635 255.417,215.635 256.5,216.5C 258.523,217.54 260.523,218.54 262.5,219.5C 263.672,219.081 264.672,218.415 265.5,217.5C 265.833,217.833 266.167,218.167 266.5,218.5C 265.066,221.047 263.4,223.381 261.5,225.5C 256.5,222.667 251.5,219.833 246.5,217C 244.536,216.376 242.869,216.876 241.5,218.5C 241.167,218.167 240.833,217.833 240.5,217.5C 241.635,215.201 242.968,213.034 244.5,211C 247.18,210.665 249.513,211.499 251.5,213.5C 252.739,210.679 252.405,208.013 250.5,205.5C 249.391,206.59 248.391,206.59 247.5,205.5C 249.038,203.757 250.038,201.757 250.5,199.5 Z"/></g>
<g><path style="opacity:0.004" fill="#a2a2a2" d="M 283.5,219.5 C 283.833,219.5 284.167,219.5 284.5,219.5C 284.672,220.492 284.338,221.158 283.5,221.5C 283.5,220.833 283.5,220.167 283.5,219.5 Z"/></g>
<g><path style="opacity:0.004" fill="#ffbfa9" d="M 282.5,221.5 C 282.833,221.5 283.167,221.5 283.5,221.5C 283.672,222.492 283.338,223.158 282.5,223.5C 282.5,222.833 282.5,222.167 282.5,221.5 Z"/></g>
<g><path style="opacity:0.004" fill="#feff00" d="M 281.5,223.5 C 281.833,223.5 282.167,223.5 282.5,223.5C 282.315,224.17 281.981,224.17 281.5,223.5 Z"/></g>
<g><path style="opacity:0.004" fill="#3b1c0a" d="M 16.5,223.5 C 16.8333,223.5 17.1667,223.5 17.5,223.5C 18.1667,223.5 18.5,223.833 18.5,224.5C 18.5,224.833 18.5,225.167 18.5,225.5C 19.1667,225.5 19.5,225.833 19.5,226.5C 19.5,226.833 19.5,227.167 19.5,227.5C 17.0274,227.912 15.6941,226.912 15.5,224.5C 16.1667,224.5 16.5,224.167 16.5,223.5 Z"/></g>
<g><path style="opacity:0.004" fill="#281004" d="M 279.5,226.5 C 279.833,226.5 280.167,226.5 280.5,226.5C 280.833,227.833 281.167,227.833 281.5,226.5C 282.525,226.897 282.692,227.563 282,228.5C 281.23,229.598 280.397,229.598 279.5,228.5C 279.5,227.833 279.5,227.167 279.5,226.5 Z"/></g>
<g><path style="opacity:0.004" fill="#fe0000" d="M 278.5,228.5 C 278.833,228.5 279.167,228.5 279.5,228.5C 279.315,229.17 278.981,229.17 278.5,228.5 Z"/></g>
<g><path style="opacity:0.004" fill="#000000" d="M 20.5,229.5 C 20.8333,229.5 21.1667,229.5 21.5,229.5C 22.8333,230.5 22.8333,231.5 21.5,232.5C 20.596,231.791 20.2627,230.791 20.5,229.5 Z"/></g>
<g><path style="opacity:0.004" fill="#000000" d="M 23.5,233.5 C 23.3605,235.337 22.6939,235.67 21.5,234.5C 21.9569,233.702 22.6236,233.369 23.5,233.5 Z"/></g>
<g><path style="opacity:0.004" fill="#160b29" d="M 25.5,236.5 C 26.9063,236.973 27.573,237.973 27.5,239.5C 25.6503,238.758 24.9836,237.758 25.5,236.5 Z"/></g>
<g><path style="opacity:0.996" fill="#bda4a5" d="M 50.5,204.5 C 53.2448,208.437 52.9115,212.271 49.5,216C 55.2039,215.519 59.5372,217.685 62.5,222.5C 65.9388,220.545 67.2722,217.878 66.5,214.5C 67.9905,216.126 69.4905,217.792 71,219.5C 71.6667,220.5 71.6667,221.5 71,222.5C 68.9261,224.452 66.7594,226.285 64.5,228C 69.8414,229.844 72.0081,233.677 71,239.5C 76.6343,237.373 81.301,238.707 85,243.5C 85.826,257 81.6594,258.833 72.5,249C 71.8333,248.333 71.1667,248.333 70.5,249C 69.287,254.712 71.6204,258.546 77.5,260.5C 74.5541,261.655 71.5541,261.821 68.5,261C 64.0561,256.572 62.3895,251.405 63.5,245.5C 60.7107,247.298 57.7107,247.798 54.5,247C 52.0232,245.357 49.6898,243.524 47.5,241.5C 46.914,241.709 46.414,242.043 46,242.5C 45.7096,244.92 45.2096,247.254 44.5,249.5C 43.6618,249.158 43.3284,248.492 43.5,247.5C 42.5186,245.511 41.5186,243.511 40.5,241.5C 42.1232,239.143 44.1232,236.976 46.5,235C 44.324,234.837 42.4907,234.004 41,232.5C 38.6212,226.748 40.1212,222.248 45.5,219C 42.9184,219.255 40.2518,219.422 37.5,219.5C 37.4257,217.589 36.4257,216.422 34.5,216C 34.7284,215.601 35.0618,215.435 35.5,215.5C 38.7659,215.371 41.7659,214.371 44.5,212.5C 46.0863,210.827 46.7529,208.827 46.5,206.5C 47.7471,206.477 49.0804,205.811 50.5,204.5 Z"/></g>
<g><path style="opacity:0.996" fill="#564a90" d="M 59.5,231.5 C 64.7365,231.99 65.9032,234.657 63,239.5C 60.3466,242.194 57.1799,243.027 53.5,242C 52.4464,240.612 52.2797,239.112 53,237.5C 55.0627,235.266 57.2294,233.266 59.5,231.5 Z"/></g>
<g><path style="opacity:0.996" fill="#594c91" d="M 51.5,220.5 C 60.0192,221.588 60.6858,224.754 53.5,230C 46.8529,233.691 44.6863,231.858 47,224.5C 48.6667,223.267 50.1667,221.933 51.5,220.5 Z"/></g>
<g><path style="opacity:0.004" fill="#fe0000" d="M 28.5,241.5 C 28.8333,241.5 29.1667,241.5 29.5,241.5C 29.3147,242.17 28.9813,242.17 28.5,241.5 Z"/></g>
<g><path style="opacity:0.996" fill="#5a4d8f" d="M 75.5,241.5 C 80.9836,241.481 82.6503,243.981 80.5,249C 77.5658,248.132 74.5658,247.132 71.5,246C 73.0414,244.629 74.3747,243.129 75.5,241.5 Z"/></g>
<g><path style="opacity:0.996" fill="#bba3a6" d="M 87.5,248.5 C 95.393,247.755 97.0596,250.755 92.5,257.5C 95.2275,257.941 97.8942,257.275 100.5,255.5C 99.6744,254.549 99.5078,253.549 100,252.5C 101.753,253.627 103.587,254.627 105.5,255.5C 106.386,256.325 106.719,257.325 106.5,258.5C 103.086,258.736 99.7527,259.402 96.5,260.5C 97.5312,261.7 98.3645,263.034 99,264.5C 99.3333,268.5 99.6667,272.5 100,276.5C 101.338,277.224 101.505,277.89 100.5,278.5C 98.5,277.5 96.5,276.5 94.5,275.5C 93.5067,270.88 93.1734,266.214 93.5,261.5C 92.1667,261.5 90.8333,261.5 89.5,261.5C 89.0847,263.747 88.4181,265.914 87.5,268C 87.9505,269.55 88.1171,271.05 88,272.5C 86.1839,271.671 84.3506,270.837 82.5,270C 81.9781,269.439 81.6448,268.772 81.5,268C 83.8208,263.195 85.9874,258.362 88,253.5C 88.7796,251.613 88.6129,249.946 87.5,248.5 Z"/></g>
<g><path style="opacity:0.996" fill="#c3a8a3" d="M 240.5,261.5 C 239.415,263.587 237.749,264.92 235.5,265.5C 232.012,264.857 229.512,262.857 228,259.5C 226.02,264.906 222.186,266.739 216.5,265C 215.016,264.338 213.683,263.504 212.5,262.5C 211.579,262.93 211.079,264.264 211,266.5C 210.047,264.627 208.88,264.294 207.5,265.5C 206.41,259.874 203.243,257.874 198,259.5C 197.51,261.545 197.677,263.545 198.5,265.5C 198.5,266.833 198.5,268.167 198.5,269.5C 197.167,269.5 195.833,269.5 194.5,269.5C 194.133,264.293 191.466,261.793 186.5,262C 185.944,262.383 185.611,262.883 185.5,263.5C 184.698,264.952 184.198,266.618 184,268.5C 182.108,267.383 181.275,265.716 181.5,263.5C 182.744,259.588 185.411,257.588 189.5,257.5C 189.591,252.759 187.258,250.592 182.5,251C 185.147,248.784 188.147,247.784 191.5,248C 193.375,250.943 194.875,254.11 196,257.5C 196.273,255.671 197.107,254.171 198.5,253C 201.711,252.202 204.711,252.702 207.5,254.5C 208.271,252.138 209.105,249.804 210,247.5C 216.378,242.14 215.211,239.307 206.5,239C 208.532,236.987 210.866,235.487 213.5,234.5C 216.084,236.417 218.417,238.75 220.5,241.5C 221.134,239.433 222.134,237.6 223.5,236C 226.907,235.518 230.24,235.518 233.5,236C 231.756,233.037 231.256,229.871 232,226.5C 233.667,222.5 236.667,220.5 241,220.5C 244.557,220.357 247.057,221.857 248.5,225C 247.114,228.391 244.948,231.225 242,233.5C 241.383,234.449 241.549,235.282 242.5,236C 244.5,236.667 246.5,236.667 248.5,236C 250.7,233.766 252.533,231.266 254,228.5C 255.422,231.03 255.755,233.697 255,236.5C 250.318,242.534 244.651,243.868 238,240.5C 239.379,243.908 239.713,247.574 239,251.5C 237.691,253.976 235.858,255.976 233.5,257.5C 234.212,259.046 235.378,260.046 237,260.5C 238.922,258.895 240.089,259.228 240.5,261.5 Z"/></g>
<g><path style="opacity:0.996" fill="#584c90" d="M 214.5,247.5 C 217.325,247.081 219.491,248.081 221,250.5C 221.615,252.116 222.615,253.449 224,254.5C 224.72,256.112 224.554,257.612 223.5,259C 217.609,259.964 213.942,257.464 212.5,251.5C 212.752,249.927 213.418,248.594 214.5,247.5 Z"/></g>
<g><path style="opacity:0.996" fill="#594c91" d="M 225.5,240.5 C 230.667,241.328 234,244.328 235.5,249.5C 234.378,253.597 232.044,254.43 228.5,252C 227.378,249.876 225.878,248.043 224,246.5C 223.252,244.16 223.752,242.16 225.5,240.5 Z"/></g>
<g><path style="opacity:0.996" fill="#594c90" d="M 236.5,224.5 C 243.545,223.976 244.712,225.976 240,230.5C 239.457,235.396 238.124,235.396 236,230.5C 235.51,228.455 235.677,226.455 236.5,224.5 Z"/></g>
<g><path style="opacity:0.996" fill="#564a90" d="M 207.5,265.5 C 207.695,270.486 205.528,272.152 201,270.5C 200.243,268.685 199.41,267.019 198.5,265.5C 197.677,263.545 197.51,261.545 198,259.5C 203.243,257.874 206.41,259.874 207.5,265.5 Z"/></g>
<g><path style="opacity:0.996" fill="#584c91" d="M 194.5,269.5 C 195.36,273.956 193.36,275.456 188.5,274C 185.9,271.016 184.9,267.516 185.5,263.5C 185.611,262.883 185.944,262.383 186.5,262C 191.466,261.793 194.133,264.293 194.5,269.5 Z"/></g>
<g><path style="opacity:0.996" fill="#b59ea8" d="M 108.5,257.5 C 111.067,258.475 113.733,259.142 116.5,259.5C 116.281,260.675 116.614,261.675 117.5,262.5C 121.954,259.977 125.62,260.977 128.5,265.5C 131.3,263.098 134.3,262.932 137.5,265C 138.93,266.907 139.596,269.074 139.5,271.5C 138.833,275.167 138.167,278.833 137.5,282.5C 137.55,284.923 138.55,286.756 140.5,288C 137.466,288.66 134.633,288.16 132,286.5C 131.758,281.95 132.258,277.45 133.5,273C 133.623,268.74 131.79,267.574 128,269.5C 125.123,274.501 124.956,279.501 127.5,284.5C 124.911,285.205 122.244,285.205 119.5,284.5C 119.389,279.554 120.056,274.721 121.5,270C 121.896,266.061 120.229,264.728 116.5,266C 113.249,271.282 112.916,276.615 115.5,282C 112.843,282.175 110.176,282.008 107.5,281.5C 107.638,275.339 108.638,269.339 110.5,263.5C 110.281,261.307 109.615,259.307 108.5,257.5 Z"/></g>
<g><path style="opacity:0.004" fill="#000000" d="M 248.5,263.5 C 248.833,263.5 249.167,263.5 249.5,263.5C 249.315,264.17 248.981,264.17 248.5,263.5 Z"/></g>
<g><path style="opacity:0.996" fill="#574b90" d="M 235.5,265.5 C 228.004,271.754 219.67,276.754 210.5,280.5C 206.167,281.315 203.834,279.648 203.5,275.5C 209.926,273.713 212.926,269.38 212.5,262.5C 213.683,263.504 215.016,264.338 216.5,265C 222.186,266.739 226.02,264.906 228,259.5C 229.512,262.857 232.012,264.857 235.5,265.5 Z"/></g>
<g><path style="opacity:0.008" fill="#000000" d="M 247.5,264.5 C 247.833,264.5 248.167,264.5 248.5,264.5C 248.315,265.17 247.981,265.17 247.5,264.5 Z"/></g>
<g><path style="opacity:0.004" fill="#fe0000" d="M 246.5,265.5 C 246.833,265.5 247.167,265.5 247.5,265.5C 247.315,266.17 246.981,266.17 246.5,265.5 Z"/></g>
<g><path style="opacity:0.996" fill="#b59fa9" d="M 164.5,262.5 C 175.737,262.587 180.237,268.253 178,279.5C 173.425,287.711 168.091,288.378 162,281.5C 161.333,280.833 161.333,280.167 162,279.5C 168.784,283.034 172.451,281.034 173,273.5C 170.903,274.991 168.57,275.991 166,276.5C 165.405,275.101 165.572,273.768 166.5,272.5C 168.396,271.534 170.396,271.201 172.5,271.5C 172.671,266.506 170.338,264.672 165.5,266C 165.135,271.64 163.301,272.473 160,268.5C 160.46,265.854 161.96,263.854 164.5,262.5 Z"/></g>
<g><path style="opacity:0.996" fill="#ab98ac" d="M 212.5,262.5 C 212.926,269.38 209.926,273.713 203.5,275.5C 203.834,279.648 206.167,281.315 210.5,280.5C 207.744,282.204 204.744,283.537 201.5,284.5C 199.733,282.089 198.233,279.422 197,276.5C 192.38,281.818 187.713,281.818 183,276.5C 180.588,272.222 180.088,267.889 181.5,263.5C 181.275,265.716 182.108,267.383 184,268.5C 184.198,266.618 184.698,264.952 185.5,263.5C 184.9,267.516 185.9,271.016 188.5,274C 193.36,275.456 195.36,273.956 194.5,269.5C 195.833,269.5 197.167,269.5 198.5,269.5C 198.5,268.167 198.5,266.833 198.5,265.5C 199.41,267.019 200.243,268.685 201,270.5C 205.528,272.152 207.695,270.486 207.5,265.5C 208.88,264.294 210.047,264.627 211,266.5C 211.079,264.264 211.579,262.93 212.5,262.5 Z"/></g>
<g><path style="opacity:0.004" fill="#000000" d="M 239.5,271.5 C 239.833,271.5 240.167,271.5 240.5,271.5C 240.315,272.17 239.981,272.17 239.5,271.5 Z"/></g>
<g><path style="opacity:0.004" fill="#000000" d="M 237.5,272.5 C 238.167,272.5 238.833,272.5 239.5,272.5C 238.738,274.262 237.404,275.262 235.5,275.5C 235.5,275.167 235.5,274.833 235.5,274.5C 235.5,274.167 235.5,273.833 235.5,273.5C 235.833,273.5 236.167,273.5 236.5,273.5C 237.167,273.5 237.5,273.167 237.5,272.5 Z"/></g>
<g><path style="opacity:0.004" fill="#fefffe" d="M 72.5,280.5 C 72.8333,280.5 73.1667,280.5 73.5,280.5C 73.3147,281.17 72.9813,281.17 72.5,280.5 Z"/></g>
<g><path style="opacity:0.008" fill="#463940" d="M 229.5,277.5 C 230.5,277.5 231.5,277.5 232.5,277.5C 228.677,280.916 224.343,283.582 219.5,285.5C 218.494,284.604 218.494,283.938 219.5,283.5C 220.167,283.5 220.5,283.167 220.5,282.5C 220.833,282.5 221.167,282.5 221.5,282.5C 222.167,282.5 222.5,282.167 222.5,281.5C 222.833,281.5 223.167,281.5 223.5,281.5C 224.833,281.167 224.833,280.833 223.5,280.5C 223.842,279.662 224.508,279.328 225.5,279.5C 225.833,280.833 226.167,280.833 226.5,279.5C 227.492,279.672 228.158,279.338 228.5,278.5C 229.167,278.5 229.5,278.167 229.5,277.5 Z"/></g>
<g><path style="opacity:0.008" fill="#3d2a23" d="M 218.5,285.5 C 217.313,286.534 216.48,287.867 216,289.5C 215.667,289.167 215.333,288.833 215,288.5C 209.892,291.119 204.392,292.786 198.5,293.5C 198.5,293.167 198.5,292.833 198.5,292.5C 199.833,292.167 201.167,291.833 202.5,291.5C 203.167,291.5 203.5,291.167 203.5,290.5C 204.833,290.167 206.167,289.833 207.5,289.5C 208.492,289.672 209.158,289.338 209.5,288.5C 209.833,288.5 210.167,288.5 210.5,288.5C 211.167,288.5 211.5,288.167 211.5,287.5C 211.833,287.5 212.167,287.5 212.5,287.5C 213.167,287.5 213.5,287.167 213.5,286.5C 213.833,286.5 214.167,286.5 214.5,286.5C 215.167,286.5 215.5,286.167 215.5,285.5C 216.5,284.167 217.5,284.167 218.5,285.5 Z"/></g>
<g><path style="opacity:0.004" fill="#000000" d="M 195.5,293.5 C 195.833,293.5 196.167,293.5 196.5,293.5C 197.167,293.5 197.833,293.5 198.5,293.5C 197.71,294.401 196.71,295.068 195.5,295.5C 195.5,295.167 195.5,294.833 195.5,294.5C 195.5,294.167 195.5,293.833 195.5,293.5 Z"/></g>
<g><path style="opacity:0.004" fill="#1c1b16" d="M 108.5,295.5 C 109.568,296.434 110.901,296.768 112.5,296.5C 112.5,296.833 112.5,297.167 112.5,297.5C 112.5,297.833 112.5,298.167 112.5,298.5C 103.161,298.666 93.8274,298.5 84.5,298C 92.579,297.762 100.579,296.929 108.5,295.5 Z"/></g>
<g><path style="opacity:0.004" fill="#000000" d="M 2.5,299.5 C 2.16667,299.5 1.83333,299.5 1.5,299.5C 1.16667,298.167 0.833333,298.167 0.5,299.5C 0.166667,299.5 -0.166667,299.5 -0.5,299.5C -0.5,298.833 -0.5,298.167 -0.5,297.5C 0.583168,297.461 1.58317,297.127 2.5,296.5C 3.56236,297.425 3.56236,298.425 2.5,299.5 Z"/></g>
<g><path style="opacity:0.004" fill="#000000" d="M 45.5,296.5 C 57.1857,296.168 68.8523,296.501 80.5,297.5C 66.5119,298.666 52.5119,298.833 38.5,298C 41.0356,297.814 43.369,297.314 45.5,296.5 Z"/></g>
<g><path style="opacity:0.004" fill="#0c0909" d="M 189.5,295.5 C 190.5,295.5 191.5,295.5 192.5,295.5C 201.47,297.573 210.637,297.906 220,296.5C 225.873,296.557 231.707,297.057 237.5,298C 220.503,298.5 203.503,298.667 186.5,298.5C 187.5,297.833 188.5,297.167 189.5,296.5C 189.5,296.167 189.5,295.833 189.5,295.5 Z"/></g>
<g><path style="opacity:0.004" fill="#000000" d="M 295.5,296.5 C 298.001,296.511 298.168,297.178 296,298.5C 295.536,297.906 295.369,297.239 295.5,296.5 Z"/></g>
<g><path style="opacity:0.004" fill="#000000" d="M 299.5,297.5 C 299.5,297.833 299.5,298.167 299.5,298.5C 298.83,298.019 298.83,297.685 299.5,297.5 Z"/></g>
<g><path style="opacity:0.654" fill="#edeae2" d="M 112.5,296.5 C 112.5,296.167 112.5,295.833 112.5,295.5C 120.072,296.235 127.405,297.568 134.5,299.5C 127.833,299.5 121.167,299.5 114.5,299.5C 114.158,298.662 113.492,298.328 112.5,298.5C 112.5,298.167 112.5,297.833 112.5,297.5C 116.5,297.167 116.5,296.833 112.5,296.5 Z"/></g>
<g><path style="opacity:0.008" fill="#776f66" d="M 185.5,296.5 C 185.833,296.5 186.167,296.5 186.5,296.5C 187.5,296.5 188.5,296.5 189.5,296.5C 188.5,297.167 187.5,297.833 186.5,298.5C 185.209,298.263 184.209,298.596 183.5,299.5C 181.167,299.5 178.833,299.5 176.5,299.5C 177.209,298.596 178.209,298.263 179.5,298.5C 180.492,298.672 181.158,298.338 181.5,297.5C 181.833,297.5 182.167,297.5 182.5,297.5C 183.791,297.737 184.791,297.404 185.5,296.5 Z"/></g>
</svg>
